<?xml version="1.0" encoding="UTF-8"?>
<svg width="24px" height="24px" viewBox="0 0 24 24" stroke-width="1.5" fill="none" xmlns="http://www.w3.org/2000/svg" color="currentColor">
<path d="M12 5c2.5 0 3 2 8 2 0 12-2 16-8 16-2 0-2.5-1-4-1s-2 1-4 1C1.5 23 0 15 0 7c0-3 2-4 4-4 3 0 3.5 2 4 2s1-2 4-2z" stroke="currentColor" stroke-width="1.5" stroke-linecap="round" stroke-linejoin="round"></path>
<path d="M15 5c0-2-1-5-4-5-3.5 0-4 3-4 5" stroke="currentColor" stroke-width="1.5" stroke-linecap="round" stroke-linejoin="round"></path>
</svg>