<svg xmlns="http://www.w3.org/2000/svg" xmlns:xlink="http://www.w3.org/1999/xlink" width="1024" zoomAndPan="magnify" viewBox="0 0 768 767.999994" height="1024" preserveAspectRatio="xMidYMid meet" version="1.0"><defs><clipPath id="965f0281c6"><path d="M 196 141.511719 L 583 141.511719 L 583 626.761719 L 196 626.761719 Z M 196 141.511719 " clip-rule="nonzero"/></clipPath><clipPath id="5c00ec9822"><path d="M 41.855469 351.859375 L 444.488281 351.859375 L 444.488281 568.605469 L 41.855469 568.605469 Z M 41.855469 351.859375 " clip-rule="nonzero"/></clipPath></defs><rect x="-76.8" width="921.6" fill="#ffffff" y="-76.799999" height="921.599993" fill-opacity="1"/><rect x="-76.8" width="921.6" fill="#0575fd" y="-76.799999" height="921.599993" fill-opacity="1"/><g clip-path="url(#965f0281c6)"><path fill="#ffffff" d="M 547.996094 249.9375 L 506.160156 249.9375 C 502.035156 189.832031 451.355469 141.511719 389.484375 141.511719 C 327.609375 141.511719 276.933594 189.242188 272.808594 249.9375 L 230.96875 249.9375 L 196.203125 626.480469 L 582.765625 626.480469 Z M 278.699219 289.417969 C 271.628906 289.417969 265.738281 283.527344 265.738281 276.457031 C 265.738281 269.382812 271.628906 263.492188 278.699219 263.492188 C 285.773438 263.492188 291.664062 269.382812 291.664062 276.457031 C 291.664062 284.117188 285.773438 289.417969 278.699219 289.417969 Z M 370.039062 249.9375 L 289.308594 249.9375 C 294.023438 198.671875 337.039062 158.601562 389.484375 158.601562 C 441.929688 158.601562 484.945312 198.671875 489.660156 249.9375 Z M 500.265625 289.417969 C 493.195312 289.417969 487.300781 283.527344 487.300781 276.457031 C 487.300781 269.382812 493.195312 263.492188 500.265625 263.492188 C 507.335938 263.492188 513.230469 269.382812 513.230469 276.457031 C 513.230469 284.117188 507.335938 289.417969 500.265625 289.417969 Z M 500.265625 289.417969 " fill-opacity="1" fill-rule="nonzero"/></g><g clip-path="url(#5c00ec9822)"><path fill="#0575fd" d="M 135.300781 466.722656 L 243.171875 504.359375 L 351.046875 466.722656 L 351.046875 531.898438 C 351.046875 552.257812 302.75 568.765625 243.171875 568.765625 C 183.597656 568.765625 135.300781 552.257812 135.300781 531.898438 Z M 243.171875 351.859375 L 444.488281 422.097656 L 414.714844 432.488281 L 414.714844 490.191406 L 415.554688 490.453125 C 420.027344 492.339844 423.160156 496.765625 423.160156 501.917969 C 423.160156 505.355469 421.765625 508.464844 419.515625 510.71875 L 419.3125 510.878906 L 426.269531 551.664062 L 395.152344 551.664062 L 402.109375 510.878906 L 401.90625 510.71875 C 399.65625 508.464844 398.269531 505.355469 398.269531 501.917969 C 398.269531 496.765625 401.402344 492.339844 405.867188 490.453125 L 406.707031 490.191406 L 406.707031 435.28125 L 243.171875 492.339844 L 41.855469 422.097656 Z M 243.171875 351.859375 " fill-opacity="1" fill-rule="evenodd"/></g></svg>